<svg width="140" height="24" viewBox="0 0 140 24" fill="none" xmlns="http://www.w3.org/2000/svg">
  <path d="M119.199 6.4222H119.169L119.199 6.39841V6.4222Z" fill="#EAE8E4" />
  <path
    d="M119.169 6.4222L110.83 13.2012L119.936 23.2864H111.021L107.431 18.7433L105.862 16.7215L104.103 18.0297V23.3102H96.7805V0H104.103V8.53915L104.031 12.107L107.051 9.3003L110.379 6.4222H119.169Z"
    fill="#EAE8E4" />
  <path fill-rule="evenodd" clip-rule="evenodd"
    d="M58.6247 23.9286C64.8771 23.9286 70.4162 20.6937 70.4162 14.9613C70.4162 9.22892 65.0672 5.85132 58.6247 5.85132C52.1822 5.85132 46.8333 9.01485 46.8333 14.9613C46.8333 20.9078 52.3248 23.9286 58.6247 23.9286ZM58.601 19.2666C56.1523 19.2666 54.2029 17.2923 54.2029 14.9138C54.2029 12.5352 56.1285 10.5609 58.601 10.5609C61.0734 10.5609 63.0465 12.559 63.0465 14.9138C63.0465 17.2686 61.0496 19.2666 58.601 19.2666Z"
    fill="#EAE8E4" />
  <path
    d="M17.6635 13.9862V23.2865H10.3889V6.39845H17.2594L17.4258 8.56297C18.9235 6.80281 20.7065 5.92273 23.7494 5.92273C26.7924 5.92273 28.8606 6.89795 30.1206 8.80083C31.7134 6.89795 32.6881 5.92273 37.0386 5.92273C41.3891 5.92273 44.646 8.11103 44.646 12.2022V23.3102H37.3239V13.225C37.3239 11.5362 36.4681 10.6086 34.5662 10.6086C32.6643 10.6086 31.1429 11.9881 31.1429 13.9862V23.3102H23.8207V13.225C23.8207 11.7503 23.1789 10.6086 21.1581 10.6086C19.1374 10.6086 17.6635 11.9644 17.6635 13.9862Z"
    fill="#EAE8E4" />
  <path
    d="M7.82136 19.9564C7.82136 22.0495 6.06215 23.7621 3.8988 23.7621C1.68789 23.7621 0 22.0257 0 19.9564C0 17.887 1.73544 16.1268 3.8988 16.1268C6.06215 16.1268 7.82136 17.8632 7.82136 19.9564Z"
    fill="#EAE8E4" />
  <path d="M79.9253 23.2865V23.3103L79.9491 23.2865H79.9253Z" fill="#EAE8E4" />
  <path
    d="M79.9253 23.2865V14.3192C79.9253 12.0595 81.5657 10.7751 83.7528 10.7751C85.9399 10.7751 86.7482 11.7979 86.7482 13.4629V23.3103H94.0703V12.1071C94.0703 8.08727 90.6708 5.94653 86.3203 5.94653C82.0103 5.94653 81.2469 6.88034 79.7767 8.67858L79.7351 8.72949L79.4736 6.39846H72.627V23.2865H79.9253Z"
    fill="#EAE8E4" />
  <path
    d="M140 17.8394C140 22.1658 136.13 23.9977 129.386 23.9999C122.476 23.9975 119.46 21.7859 118.984 18.2438L125.926 18.0773C126.211 19.4331 127.281 20.1466 129.706 20.1466C132.131 20.1466 133.224 19.4806 133.224 18.553C133.224 17.6253 132.392 17.221 130.895 17.102L126.972 16.7452C121.742 16.2457 119.484 15.0089 119.484 11.5361C119.484 8.06338 123.192 5.80371 129.302 5.80371C135.412 5.80371 138.74 7.63523 139.334 11.0366L132.559 11.2031C132.297 10.0138 130.942 9.49053 129.04 9.49053C127.139 9.49053 125.974 9.99004 125.974 10.8225C125.974 11.6551 126.734 12.0356 128.47 12.2021L132.297 12.5351C137.741 12.9871 140 13.5104 140 17.8394Z"
    fill="#EAE8E4" />
  <path
    d="M129.386 23.9999C129.381 23.9999 129.377 23.9999 129.373 23.9999H129.397C129.393 23.9999 129.389 23.9999 129.386 23.9999Z"
    fill="#EAE8E4" />
</svg>