<svg width="72" height="101" viewBox="0 0 72 101" fill="none" xmlns="http://www.w3.org/2000/svg">
<path d="M47.3166 6.96336C39.8197 2.14856 30.5643 -0.0855603 21.8292 1.51125L21.8228 1.51241C16.4755 2.41885 11.5317 4.91683 7.64564 8.67528C3.7932 12.4475 1.58671 17.5709 1.50009 22.9421C1.54969 30.3395 6.61383 36.3654 12.896 39.945L12.8972 39.9457C17.3385 42.492 22.3287 43.9908 27.3164 45.2381C34.1617 46.9397 43.9296 48.216 53.7253 44.9451C53.9872 44.8577 54.2705 44.9991 54.3579 45.261C54.4454 45.523 54.3039 45.8062 54.042 45.8937C43.9884 49.2506 34.0044 47.9311 27.0745 46.2084C22.0681 44.9565 16.9663 43.4312 12.4003 40.8135C5.93782 37.1309 0.550267 30.8284 0.500071 22.943L0.5 22.9319C0.589388 17.2937 2.9052 11.9169 6.9471 7.95971L6.94925 7.9576C10.9802 4.05853 16.1075 1.46757 21.6525 0.526976C30.6672 -1.12 40.1758 1.18879 47.857 6.12194C55.5377 11.0547 61.4338 18.3824 65.2692 26.5874C69.9638 36.6107 71.9006 47.9388 71.4319 58.9243C71.1465 65.7605 70.5018 73.6128 68.6682 81.0611C67.0668 87.5663 64.5511 93.7938 60.5493 98.7706C61.5255 98.2173 62.4834 97.6323 63.4215 97.0166C63.6523 96.8651 63.9623 96.9294 64.1138 97.1603C64.2653 97.3911 64.201 97.7011 63.9702 97.8526C62.2392 98.9887 60.4421 100.022 58.5884 100.947C58.5145 100.984 58.4344 101.002 58.3552 101C58.2315 100.999 58.1079 100.952 58.012 100.859C57.8531 100.706 57.818 100.472 57.9088 100.283C58.0801 99.7347 58.2735 99.2078 58.4589 98.7024L58.4645 98.6872C58.661 98.1516 58.8478 97.6414 59.0019 97.1313C59.3084 96.1164 59.4745 95.134 59.3096 94.0658C59.2674 93.7929 59.4545 93.5375 59.7274 93.4954C60.0003 93.4532 60.2557 93.6403 60.2979 93.9132C60.4943 95.1855 60.2886 96.3295 59.9592 97.4204C59.8756 97.6971 59.7834 97.9725 59.6872 98.2464C63.612 93.4083 66.1038 87.2944 67.6972 80.8221C69.5071 73.47 70.1483 65.6952 70.4328 58.8822C70.8955 48.0372 68.9818 36.8716 64.3634 27.0112C60.5954 18.9503 54.8151 11.7791 47.3166 6.96336Z" fill="#EAE8E4"/>
<path d="M18.3398 27.2032C18.2395 27.0811 18.1201 26.9748 17.9859 26.8883C17.8512 26.7935 17.7093 26.7088 17.5612 26.6349L17.1153 26.4021C16.969 26.3276 16.8313 26.2381 16.7047 26.1351C16.4023 26.0639 16.1082 25.9629 15.827 25.8339C15.551 25.7038 15.2678 25.5874 14.9776 25.4778C14.9776 25.4778 14.9776 25.5189 14.9069 25.5189H14.7299C14.6648 25.4475 14.582 25.3933 14.4892 25.3614C14.3938 25.3144 14.2943 25.2755 14.192 25.245L13.8805 25.1492C13.7849 25.1184 13.6944 25.0746 13.6115 25.0191C13.5418 25.0126 13.4729 24.9989 13.4063 24.978C13.3367 24.9603 13.2635 24.9603 13.1939 24.978L12.5427 24.5945C12.3302 24.4632 12.1246 24.3215 11.9269 24.17C11.7258 24.0246 11.5386 23.8619 11.3677 23.6839C11.1911 23.5032 11.0367 23.3033 10.9076 23.0882C10.9044 23.0001 10.8902 22.9128 10.8652 22.828C10.8551 22.737 10.8551 22.6452 10.8652 22.5541V22.335C10.9156 22.3037 10.9551 22.2584 10.9784 22.205C11.005 22.1514 11.0286 22.0966 11.0492 22.0406C11.0492 22.0011 11.0638 21.9643 11.078 21.9286C11.0859 21.9087 11.0937 21.8891 11.0988 21.8695C11.1116 21.8118 11.1383 21.7578 11.1766 21.712C11.2074 21.6634 11.2551 21.6269 11.3111 21.6093C11.365 21.5847 11.4132 21.5497 11.4527 21.5066C11.4939 21.4652 11.5211 21.4127 11.5305 21.3559C11.5413 21.3273 11.5592 21.3017 11.5827 21.2814C11.6061 21.2611 11.6344 21.2467 11.665 21.2395C11.7735 21.2069 11.8761 21.1584 11.9694 21.0957C12.0573 21.0261 12.1401 20.9506 12.2171 20.8698C12.3333 20.8284 12.4447 20.7756 12.5498 20.7123L12.8471 20.5138L13.1656 20.322C13.2806 20.2605 13.4048 20.2166 13.5337 20.1919C13.5745 20.1442 13.6285 20.1086 13.6894 20.0892C13.7527 20.0749 13.8082 20.0383 13.8451 19.9865C13.9458 19.9817 14.0456 19.9657 14.1424 19.9386L14.4538 19.8564L14.7511 19.7811C14.8536 19.76 14.9579 19.7485 15.0626 19.7469H15.2395C15.2718 19.8187 15.3296 19.877 15.4023 19.9112C15.4791 19.9406 15.5605 19.9569 15.643 19.9592C15.7227 19.9583 15.8017 19.9444 15.8766 19.9181C15.9511 19.8886 16.0168 19.8415 16.0677 19.7811C16.2068 19.788 16.3462 19.788 16.4853 19.7811H17.1861C17.2844 19.7924 17.3788 19.8251 17.4621 19.877C17.4596 19.8569 17.462 19.8366 17.4691 19.8175C17.4761 19.7985 17.4877 19.7814 17.5028 19.7674C17.5179 19.7535 17.5362 19.7431 17.5561 19.7372C17.5761 19.7312 17.5972 19.7299 17.6178 19.7332H17.6674V19.6716C17.6705 19.6306 17.6705 19.5894 17.6674 19.5483C17.6603 19.5076 17.6375 19.4709 17.6037 19.4456C17.6803 19.416 17.7537 19.3793 17.8231 19.3361C17.8889 19.2856 17.9361 19.216 17.9576 19.1375C17.9422 19.1208 17.9305 19.1013 17.9232 19.0801C17.9159 19.0589 17.9132 19.0365 17.9151 19.0143V18.9869L17.6957 18.891C17.6688 18.8719 17.6466 18.8472 17.6307 18.8188C17.6148 18.7904 17.6055 18.759 17.6037 18.7267C17.4149 18.6993 17.2238 18.6651 17.0303 18.624C16.8414 18.5885 16.6495 18.5701 16.457 18.5692C16.4124 18.5626 16.3671 18.5626 16.3225 18.5692C16.2779 18.5758 16.2326 18.5758 16.188 18.5692C16.1815 18.5702 16.1749 18.5699 16.1685 18.5683C16.1621 18.5668 16.1561 18.564 16.1508 18.5602C16.1455 18.5564 16.1411 18.5516 16.1377 18.546C16.1344 18.5405 16.1323 18.5345 16.1314 18.5281C16.1314 18.5281 16.1314 18.4939 16.0606 18.4939C16.0508 18.5093 16.0373 18.5223 16.0213 18.5318C16.0053 18.5413 15.9873 18.5471 15.9686 18.5487H15.6925C15.6436 18.5385 15.5929 18.5385 15.5439 18.5487C15.4171 18.5674 15.2934 18.6019 15.1758 18.6514C15.0618 18.6984 14.9388 18.7217 14.8148 18.7198H14.7441L14.4397 18.8431C14.3358 18.8702 14.2287 18.884 14.1212 18.8842H14.0504C14.045 18.9036 14.0352 18.9217 14.0217 18.9371C14.0083 18.9525 13.9915 18.9648 13.9725 18.9732L13.8451 19.0211C13.8052 19.0155 13.7647 19.0155 13.7248 19.0211C13.7036 19.0259 13.6837 19.0351 13.6666 19.0481C13.6495 19.0611 13.6355 19.0776 13.6257 19.0964C13.6005 19.0838 13.5726 19.0772 13.5443 19.0772C13.516 19.0772 13.488 19.0838 13.4629 19.0964C13.4174 19.1205 13.3661 19.1323 13.3142 19.1307H13.2576C13.2254 19.1929 13.1733 19.2433 13.109 19.2745L12.2596 19.6716C11.9766 19.8049 11.7126 19.9729 11.4739 20.1714C11.4321 20.183 11.3951 20.2072 11.3684 20.2404C11.3417 20.2736 11.3266 20.3142 11.3253 20.3563C11.2875 20.3778 11.254 20.4057 11.2262 20.4384L11.1412 20.5138C11.0997 20.541 11.0495 20.5531 10.9997 20.548C10.999 20.5988 10.9788 20.6476 10.943 20.6849C10.9169 20.7243 10.9 20.7687 10.8935 20.815C10.5465 20.9577 10.263 21.2149 10.0936 21.5408C9.91755 21.861 9.82749 22.2189 9.83175 22.5815C9.83307 22.8604 9.87842 23.1375 9.96623 23.4032C10.0091 23.4377 10.045 23.4795 10.0724 23.5264C10.1066 23.5721 10.124 23.6275 10.122 23.6839C10.1264 23.7134 10.1264 23.7434 10.122 23.7729C10.2526 23.8764 10.3734 23.991 10.4829 24.1153C10.5918 24.2458 10.68 24.3911 10.7448 24.5466L11.0138 24.6767C11.0572 24.7016 11.0935 24.7366 11.1194 24.7784C11.1454 24.8202 11.1601 24.8676 11.1625 24.9164H11.2686C11.3067 24.9144 11.3446 24.9215 11.3792 24.9371C11.4137 24.9526 11.4438 24.976 11.4668 25.0054L11.6509 25.1697C11.7505 25.1883 11.8462 25.2231 11.934 25.2724C12.0166 25.314 12.0969 25.3597 12.1747 25.4093C12.2583 25.4572 12.3459 25.4984 12.4365 25.5326C12.5378 25.573 12.6456 25.5962 12.7551 25.6011C12.7565 25.6227 12.7638 25.6436 12.7762 25.6616C12.7886 25.6796 12.8058 25.6942 12.8258 25.7038C12.8447 25.7082 12.8619 25.7176 12.8757 25.7309C12.8894 25.7442 12.8991 25.7608 12.9037 25.7791H12.9391C12.953 25.78 12.9669 25.7773 12.9793 25.7713C12.9918 25.7653 13.0023 25.7561 13.0099 25.7448C13.0285 25.7402 13.0479 25.7402 13.0665 25.7448C13.0945 25.7855 13.1306 25.8204 13.1727 25.8475L13.3284 25.9023L13.4841 25.9708C13.5294 25.9939 13.5664 26.0297 13.5903 26.0735C13.6915 26.0726 13.7921 26.0888 13.8876 26.1214C13.9842 26.1438 14.0789 26.1736 14.1707 26.2104L14.4397 26.3131C14.5354 26.3467 14.6354 26.3674 14.737 26.3748C14.8683 26.4973 15.0287 26.5866 15.2041 26.6349L15.3083 26.6575C15.4604 26.6907 15.6048 26.7222 15.7492 26.7445C15.7575 26.7762 15.7725 26.806 15.7932 26.8319C15.8139 26.8578 15.8399 26.8793 15.8695 26.8951L16.0535 26.9704L16.2376 27.0526C16.2664 27.0636 16.2926 27.0802 16.3145 27.1014C16.3364 27.1227 16.3536 27.148 16.365 27.1759C16.5606 27.2051 16.7442 27.2856 16.8958 27.4087C17.045 27.5361 17.1824 27.6758 17.3064 27.8263V27.8674C17.3097 27.8809 17.3097 27.895 17.3064 27.9085C17.3089 27.9418 17.3046 27.9753 17.2936 28.0071C17.2827 28.0388 17.2654 28.0681 17.2427 28.0933C17.1977 28.1349 17.17 28.1909 17.1648 28.2508C16.8605 28.422 16.5702 28.5658 16.3013 28.6959C16.0034 28.8246 15.6851 28.9033 15.3599 28.9287C15.2792 28.9818 15.191 29.0234 15.098 29.0519L14.7936 29.1272C14.6909 29.1476 14.5868 29.1614 14.4822 29.1683H13.9513C13.8735 29.1606 13.7972 29.1422 13.7248 29.1135V28.9355C13.7184 28.8651 13.7017 28.796 13.6752 28.7301C13.6581 28.6637 13.624 28.6025 13.5761 28.5521C13.5608 28.5277 13.5388 28.5078 13.5126 28.4945C13.4864 28.4812 13.457 28.4751 13.4275 28.4768C13.3669 28.4638 13.3041 28.4638 13.2435 28.4768C13.1882 28.5025 13.1278 28.5165 13.0665 28.5179C12.9822 28.5943 12.9127 28.6848 12.8612 28.7849C12.8113 28.8902 12.7848 29.0045 12.7834 29.1204C12.7838 29.2762 12.8252 29.4294 12.9037 29.5654C12.9768 29.7024 13.078 29.8235 13.201 29.9215L13.7814 29.9831C13.9736 30.0104 14.1676 30.0241 14.3618 30.0242C14.4655 30.0316 14.5696 30.0316 14.6733 30.0242L14.9847 29.9694H15.0484C15.1259 29.9585 15.2046 29.9585 15.282 29.9694C15.3062 29.9458 15.3351 29.9272 15.3669 29.9146H15.6005C15.6383 29.9104 15.6734 29.8934 15.6996 29.8667H15.7633C15.9737 29.8676 16.1817 29.8232 16.3721 29.7366L16.9525 29.4833L17.1294 29.4148C17.1869 29.407 17.2422 29.3884 17.2922 29.36C17.3848 29.3182 17.4669 29.2575 17.5329 29.182C17.6251 29.1067 17.7247 29.0402 17.8302 28.9835C17.8369 28.8989 17.8689 28.818 17.9222 28.7507L18.0779 28.5863C18.1358 28.5326 18.1902 28.4754 18.2407 28.4152C18.2973 28.349 18.3319 28.2679 18.3398 28.1824C18.3552 28.1896 18.3722 28.1934 18.3894 28.1934C18.4065 28.1934 18.4235 28.1896 18.4389 28.1824C18.457 28.1554 18.4847 28.1359 18.5168 28.1276V27.9838C18.5192 27.8661 18.4951 27.7492 18.446 27.6414C18.3935 27.4998 18.3579 27.3527 18.3398 27.2032Z" fill="#EAE8E4"/>
<path d="M25.8994 26.6007C25.7968 26.6343 25.6891 26.6505 25.5809 26.6486C25.4928 26.6521 25.406 26.6281 25.3331 26.5802C25.2439 26.6194 25.1606 26.6701 25.0854 26.7308C25.0177 26.7953 24.9313 26.8383 24.8376 26.854H24.3988L23.7618 26.9225C23.5506 26.9498 23.3378 26.9636 23.1247 26.9636C22.9496 26.9624 22.7746 26.951 22.6009 26.9294C22.4306 26.9059 22.2626 26.8693 22.0984 26.8198C22.0352 26.8307 21.9705 26.8307 21.9072 26.8198C21.8267 26.8205 21.747 26.8041 21.6737 26.7719L21.4401 26.6692L21.1853 26.5665C21.0992 26.5355 21.0081 26.5193 20.9163 26.5185C20.8878 26.4529 20.8413 26.3961 20.7818 26.3542C20.7251 26.307 20.6634 26.2657 20.5978 26.231L20.4067 26.1077C20.3447 26.0647 20.2938 26.0085 20.258 25.9434C20.2541 25.9276 20.2541 25.9112 20.258 25.8955V25.8475C20.1599 25.8095 20.0811 25.7358 20.0386 25.6421C19.9996 25.5445 19.9472 25.4524 19.8829 25.3683C19.8747 25.3345 19.8747 25.2993 19.8829 25.2656V25.1423C19.876 25.0306 19.876 24.9185 19.8829 24.8068C19.9017 24.6958 19.9135 24.5837 19.9183 24.4713C19.957 24.421 19.9924 24.3684 20.0244 24.3138C20.0595 24.2593 20.0835 24.1989 20.0952 24.1358C20.1509 24.117 20.2016 24.0866 20.2439 24.0468L20.3571 23.9167L20.4704 23.7798C20.5099 23.7356 20.5551 23.6965 20.6049 23.6634L20.8526 23.5264L21.2277 23.321L21.6029 23.143C21.6757 23.1037 21.7546 23.0759 21.8365 23.0608H22.0488C22.1724 22.9472 22.332 22.8772 22.5018 22.8623C22.6763 22.8429 22.849 22.8109 23.0185 22.7664C23.0804 22.7993 23.1473 22.8224 23.2167 22.8349C23.2893 22.8491 23.3604 22.8697 23.4291 22.8965C23.4134 23.0387 23.3676 23.1762 23.2946 23.3005L23.4715 23.3552L23.6131 23.4306C23.6677 23.4598 23.7245 23.4849 23.783 23.5059C23.858 23.5176 23.9345 23.5176 24.0095 23.5059C24.2253 23.5149 24.437 23.4467 24.6041 23.3142C24.7666 23.1719 24.8698 22.9771 24.8943 22.7664C24.8586 22.7214 24.8322 22.6703 24.8164 22.6158L24.7739 22.5678C24.7546 22.5137 24.7309 22.461 24.7032 22.4104C24.6759 22.3593 24.64 22.313 24.597 22.2734C24.5188 22.2239 24.4284 22.1956 24.3351 22.1913C24.2389 22.1871 24.1479 22.148 24.0803 22.0817H23.9458C23.8284 22.0796 23.7127 22.0539 23.606 22.0064C23.5059 21.9541 23.3942 21.9259 23.2804 21.9242C23.2177 21.9222 23.1559 21.9389 23.1035 21.9722H22.9619C22.8467 21.9703 22.732 21.9865 22.6222 22.0201C22.5113 22.0493 22.3972 22.0654 22.2824 22.068H22.2045C22.1537 22.1109 22.093 22.1414 22.0276 22.157L21.8435 22.1981H21.6524L21.4684 22.2323C21.4307 22.2481 21.397 22.2715 21.3693 22.3008C21.3376 22.3502 21.2905 22.3886 21.2348 22.4104L21.0225 22.4925L20.8243 22.5747C20.7776 22.5996 20.7276 22.6181 20.6756 22.6295C20.6287 22.6393 20.5835 22.6555 20.5411 22.6774C20.4859 22.7116 20.4359 22.7531 20.3925 22.8006C20.3555 22.8452 20.3024 22.8746 20.2439 22.8828H20.1235C20.1189 22.8937 20.1165 22.9053 20.1165 22.917C20.1165 22.9288 20.1189 22.9404 20.1235 22.9513C20.1227 22.9634 20.1191 22.9753 20.113 22.9859C20.1069 22.9966 20.0984 23.0058 20.0881 23.0129C20.0726 23.0197 20.0557 23.0232 20.0386 23.0232C20.0215 23.0232 20.0046 23.0197 19.989 23.0129C19.9637 23.0055 19.9366 23.0055 19.9112 23.0129C19.8752 23.0341 19.8439 23.0621 19.8192 23.0951L19.7625 23.1772L19.5573 23.3279C19.4879 23.368 19.4257 23.4189 19.3732 23.4785L19.3095 23.5333L19.2387 23.5812C19.1712 23.667 19.112 23.7587 19.0618 23.8551C19.0031 23.9732 18.9512 24.0944 18.9061 24.218C18.8679 24.3417 18.8372 24.4674 18.8141 24.5945C18.7882 24.6977 18.774 24.8033 18.7716 24.9095C18.7737 25.0319 18.7903 25.1537 18.8211 25.2724C18.8467 25.3929 18.8797 25.5118 18.9202 25.6284L19.0476 25.9776C19.0916 26.0927 19.1224 26.2121 19.1397 26.3337C19.2341 26.3877 19.316 26.46 19.3803 26.5459C19.4548 26.6257 19.5233 26.7103 19.5856 26.7993C19.666 26.8283 19.7422 26.8674 19.8121 26.9157L19.9961 27.0458L20.1943 27.1485C20.2787 27.1779 20.3668 27.1963 20.4562 27.2032C20.4812 27.2527 20.524 27.2917 20.5765 27.3128L20.7393 27.3813L20.9234 27.436L21.0791 27.5114C21.2605 27.5531 21.4452 27.5806 21.6312 27.5935H23.3724C23.6739 27.5962 23.9749 27.571 24.2714 27.5182C24.5687 27.4703 24.866 27.4292 25.1703 27.395C25.1993 27.3578 25.2386 27.3293 25.2836 27.3128C25.3289 27.295 25.3765 27.2834 25.4251 27.2786H25.5667C25.6141 27.2695 25.6581 27.2482 25.6941 27.2169C25.7074 27.212 25.7191 27.2037 25.7278 27.1928C25.7365 27.182 25.742 27.169 25.7437 27.1553C25.7538 27.1192 25.7733 27.0862 25.8003 27.0595C25.8382 27.0222 25.881 26.9899 25.9277 26.9636C25.9787 26.9429 26.0264 26.9152 26.0693 26.8814C26.1178 26.8549 26.161 26.8202 26.1967 26.7787C26.2339 26.7342 26.2539 26.6785 26.2533 26.6213H26.1896C26.0944 26.6008 25.9966 26.5939 25.8994 26.6007Z" fill="#EAE8E4"/>
<path fill-rule="evenodd" clip-rule="evenodd" d="M42.6607 22.3214L42.4908 22.1159C42.4336 22.0432 42.3883 21.9623 42.3563 21.8763C42.1928 21.812 42.049 21.7083 41.9387 21.575H41.7617C41.6455 21.5751 41.5303 21.5542 41.422 21.5134C41.3139 21.472 41.1985 21.451 41.0822 21.4518H40.8699L40.5584 21.5271C40.4562 21.5517 40.3584 21.5909 40.2682 21.6435C40.0837 21.7282 39.9062 21.8267 39.7374 21.9379C39.5678 22.0535 39.3785 22.1393 39.1782 22.1913C39.151 22.2423 39.1151 22.2886 39.072 22.3282C39.0254 22.3631 38.9908 22.4108 38.9729 22.4651C38.7309 22.588 38.509 22.7449 38.3146 22.9307C38.1276 23.1227 37.9159 23.2907 37.6847 23.4306C37.6951 23.4641 37.6951 23.4998 37.6847 23.5333C37.6847 23.5333 37.6422 23.5675 37.5856 23.5675C37.5949 23.5844 37.5997 23.6032 37.5997 23.6223C37.5997 23.6414 37.5949 23.6602 37.5856 23.6771C37.5816 23.7089 37.5816 23.7411 37.5856 23.7729C37.3446 24.0104 37.1244 24.2669 36.9273 24.5398C36.7322 24.8121 36.5774 25.1093 36.4672 25.423C36.4757 25.518 36.4637 25.6136 36.4318 25.7038C36.3976 25.7851 36.3738 25.8702 36.361 25.9571L36.538 26.4912H36.1345C35.7948 26.4912 35.4267 26.4912 35.1011 26.5391H34.8251C34.7367 26.5455 34.6491 26.5593 34.5632 26.5802H34.365C34.3268 26.5771 34.2913 26.56 34.2659 26.5322C34.2364 26.5204 34.2033 26.5204 34.1739 26.5322C34.1296 26.5687 34.0756 26.5924 34.0181 26.6007L33.8412 26.6486C33.6147 26.6486 33.3882 26.6486 33.1334 26.6966L32.4255 26.7787L31.7177 26.854C31.4821 26.8722 31.2455 26.8722 31.0099 26.854H30.7409C30.7486 26.8335 30.7492 26.8112 30.7429 26.7903C30.7365 26.7693 30.7234 26.7509 30.7055 26.7376C30.6783 26.7032 30.6415 26.6771 30.5993 26.6623C30.5946 26.6397 30.5946 26.6165 30.5993 26.5939C30.5888 26.5465 30.5888 26.4975 30.5993 26.4501C30.6232 26.4 30.6399 26.347 30.6489 26.2926C31.0665 25.9776 31.4629 25.6558 31.8522 25.3203L33.0201 24.3001L33.2112 23.9509C33.2773 23.8333 33.3364 23.7122 33.3882 23.588C33.4492 23.4639 33.5012 23.3358 33.5439 23.2046C33.5857 23.0782 33.6096 22.9469 33.6147 22.8143V22.6637C33.465 22.4623 33.2916 22.2785 33.098 22.1159C33.0164 22.1339 32.9318 22.1339 32.8502 22.1159L32.645 22.0201C32.5082 22.0269 32.3712 22.0269 32.2344 22.0201C32.1011 21.9985 31.9662 21.9871 31.831 21.9859C31.6341 21.972 31.4362 21.9858 31.2435 22.0269C31.0526 22.0655 30.858 22.0839 30.663 22.0817C30.5431 22.0681 30.422 22.0681 30.3021 22.0817L29.9481 22.1433L29.6013 22.2118C29.4838 22.2256 29.3649 22.2256 29.2474 22.2118C29.1637 22.2597 29.0761 22.3009 28.9855 22.335C28.8967 22.3517 28.8054 22.3517 28.7165 22.335H28.5679C28.5191 22.399 28.4491 22.4449 28.3697 22.4651C28.2912 22.4861 28.2104 22.4976 28.129 22.4994C28.0526 22.4952 27.9767 22.4838 27.9025 22.4651L27.6973 22.3898C27.6049 22.4243 27.5189 22.4728 27.4424 22.5336L27.2301 22.7253C27.1556 22.7824 27.0776 22.835 26.9965 22.8828C26.9113 22.9319 26.8121 22.9535 26.7134 22.9444H26.6355C26.5684 22.9966 26.4946 23.0403 26.4161 23.0745L26.1825 23.1772C26.1068 23.2125 26.0355 23.2561 25.9702 23.3073C25.8994 23.3552 25.8412 23.4186 25.8003 23.4922V23.7798C25.7932 23.8206 25.7932 23.8622 25.8003 23.903C25.7897 23.9388 25.7897 23.9768 25.8003 24.0126C25.8244 24.0105 25.8487 24.0131 25.8718 24.0201C25.8948 24.0272 25.9163 24.0386 25.9348 24.0536C25.9712 24.077 26.0045 24.1046 26.0339 24.1358L26.14 24.2317C26.1894 24.2627 26.2448 24.2837 26.3028 24.2933L26.4019 24.2522L26.5223 24.17L26.6426 24.0947C26.6637 24.079 26.6877 24.0673 26.7134 24.0605H26.954L27.0177 23.9989C27.0384 23.9728 27.0651 23.9517 27.0956 23.9372C27.1328 23.928 27.1717 23.928 27.2089 23.9372H27.2867C27.2907 23.9805 27.2907 24.0241 27.2867 24.0673C27.2904 24.1106 27.2904 24.1541 27.2867 24.1974C27.2936 24.284 27.2936 24.371 27.2867 24.4576C27.2789 24.551 27.2789 24.6449 27.2867 24.7383C27.2664 24.8031 27.2664 24.8722 27.2867 24.9369C27.2549 24.973 27.2308 25.0149 27.2159 25.0601C27.2112 25.1034 27.2112 25.147 27.2159 25.1902C27.1981 25.283 27.1981 25.3782 27.2159 25.471C27.2333 25.5661 27.2333 25.6634 27.2159 25.7585C27.2199 25.8224 27.2199 25.8864 27.2159 25.9502C27.2094 26.014 27.2094 26.0782 27.2159 26.142C27.1948 26.2575 27.1948 26.3757 27.2159 26.4912C27.2337 26.6046 27.2337 26.72 27.2159 26.8335C27.2287 26.8945 27.2287 26.9574 27.2159 27.0184C27.3077 27.1754 27.3701 27.347 27.4 27.5251C27.4424 27.7236 27.4849 27.9016 27.5274 28.066C27.6036 28.1192 27.6706 28.1839 27.7256 28.2577C27.7853 28.3295 27.8491 28.3981 27.9167 28.4631C27.9789 28.5314 28.0503 28.5913 28.129 28.6411C28.2102 28.6897 28.3027 28.718 28.398 28.7233C28.4637 28.7323 28.5305 28.7323 28.5962 28.7233C28.6085 28.611 28.6421 28.5019 28.6953 28.4015C28.7504 28.3046 28.7818 28.1969 28.7873 28.0865C28.7946 28.0619 28.7946 28.0358 28.7873 28.0112C28.7835 28.0001 28.7835 27.9881 28.7873 27.977C28.7896 27.9611 28.7896 27.9449 28.7873 27.929H28.6811C28.6001 27.8007 28.5313 27.6655 28.4759 27.5251C28.3779 27.2327 28.3069 26.9325 28.2635 26.6281C28.2471 26.5116 28.2222 26.3952 28.1987 26.285C28.195 26.2677 28.1913 26.2505 28.1877 26.2335C28.1846 26.2188 28.1816 26.2043 28.1786 26.1899C28.2287 26.0179 28.2596 25.8411 28.2706 25.6627V24.7794C28.2791 24.5929 28.3148 24.4085 28.3768 24.2317C28.3787 24.2066 28.3787 24.1814 28.3768 24.1563C28.3798 24.129 28.3798 24.1015 28.3768 24.0742C28.3841 24.0426 28.3841 24.0099 28.3768 23.9783C28.3701 23.9444 28.3701 23.9095 28.3768 23.8756C28.373 23.8575 28.373 23.8389 28.3768 23.8208L28.8652 23.5949C29.0318 23.5142 29.217 23.4765 29.4031 23.4853H29.5447C29.6626 23.4178 29.792 23.3715 29.9269 23.3484C30.0645 23.3201 30.2041 23.3018 30.3445 23.2936H30.7551C30.8948 23.2864 31.0329 23.2611 31.1656 23.2183C31.2952 23.2285 31.4254 23.2285 31.5549 23.2183C31.8138 23.199 32.0743 23.2198 32.3264 23.2799C32.4573 23.2994 32.5799 23.3539 32.6804 23.4374C32.6308 23.6666 32.5239 23.8806 32.3689 24.0605C32.2169 24.2454 32.0324 24.403 31.8239 24.5261C31.8097 24.5681 31.7882 24.6075 31.7602 24.6425C31.7307 24.6756 31.6974 24.7055 31.6611 24.7315L31.5549 24.8068C31.5237 24.8328 31.4994 24.8656 31.4841 24.9027C31.3704 24.9631 31.2616 25.0318 31.1585 25.1081L30.8612 25.3409L30.564 25.5668C30.4684 25.6424 30.3638 25.7068 30.2525 25.7585C30.1534 25.8818 30.0543 25.9913 29.9481 26.1077C29.842 26.2241 29.7217 26.3199 29.6014 26.4158C29.5229 26.4783 29.5287 26.5729 29.5343 26.6653C29.5374 26.7146 29.5404 26.7633 29.5305 26.8061L29.4668 27.2032C29.4989 27.2167 29.5273 27.2374 29.5494 27.2636C29.5716 27.2898 29.587 27.3208 29.5942 27.3539C29.6117 27.423 29.643 27.4881 29.6862 27.5456C29.7526 27.641 29.8426 27.7187 29.9481 27.7715C30.1861 27.8977 30.4447 27.9834 30.7126 28.0249C30.8264 28.0504 30.9426 28.0642 31.0594 28.066C31.2126 28.0763 31.3663 28.0763 31.5195 28.066C31.6467 27.9784 31.7589 27.8721 31.8522 27.751C31.8667 27.7726 31.8867 27.7902 31.9102 27.8022C31.9338 27.8142 31.9601 27.8201 31.9867 27.8195C32.0476 27.818 32.108 27.8297 32.1636 27.8537C32.2227 27.8138 32.287 27.7816 32.3548 27.7579L32.5529 27.7236H32.7582C32.8283 27.71 32.8954 27.6845 32.9564 27.6483C33.0098 27.6616 33.0658 27.6616 33.1192 27.6483C33.1756 27.6417 33.2327 27.6417 33.2891 27.6483C33.3095 27.6403 33.3324 27.6403 33.3528 27.6483H33.4094C33.5914 27.5722 33.7812 27.5148 33.9757 27.4771C34.188 27.436 34.4004 27.4018 34.6127 27.3813C34.7189 27.371 34.8268 27.3573 34.9348 27.3436C35.0427 27.3299 35.1507 27.3162 35.2568 27.306C35.4633 27.2948 35.6689 27.272 35.8726 27.2375C35.922 27.2308 35.972 27.2308 36.0213 27.2375C36.0777 27.2441 36.1347 27.2441 36.1912 27.2375C36.3646 27.2188 36.5355 27.1821 36.7008 27.1279C36.7792 27.2737 36.8691 27.4133 36.9698 27.5456L37.2812 27.6894C37.388 27.7271 37.4813 27.7936 37.5502 27.8811L37.8899 27.9427H38.5058C38.5967 27.921 38.6846 27.8888 38.7676 27.8469C38.7905 27.8641 38.8167 27.8766 38.8447 27.8837C38.8727 27.8907 38.9018 27.8922 38.9305 27.8879H39.0437C39.1608 27.8421 39.2815 27.8055 39.4047 27.7784C39.5261 27.7529 39.649 27.7347 39.7728 27.7236C39.9269 27.5862 40.104 27.4751 40.2966 27.395C40.4876 27.3128 40.6858 27.2443 40.884 27.1759L41.2026 26.9088C41.318 26.8269 41.4442 26.7601 41.5777 26.7103C41.7193 26.5254 41.8679 26.3405 42.0166 26.1694C42.1652 25.9857 42.2867 25.7829 42.3776 25.5668C42.3666 25.4919 42.3666 25.4158 42.3776 25.3409C42.3879 25.2771 42.407 25.2149 42.4342 25.156L42.512 24.9711C42.5375 24.9268 42.5593 24.8789 42.5827 24.8275C42.5918 24.8075 42.6012 24.7868 42.6111 24.7657C42.6114 24.5314 42.657 24.2991 42.7456 24.081C42.7571 24.035 42.7762 23.9911 42.8023 23.9509C42.8271 23.9078 42.8462 23.8618 42.8589 23.814V23.2457C42.8556 23.1841 42.8556 23.1224 42.8589 23.0608C42.8652 22.9921 42.8895 22.9261 42.9297 22.8691C42.9163 22.7744 42.8825 22.6834 42.8306 22.6021C42.7937 22.4986 42.7359 22.4032 42.6607 22.3214ZM41.8821 23.6223V23.725C41.8811 23.8659 41.8621 24.0062 41.8255 24.1426C41.7901 24.2727 41.7476 24.396 41.698 24.5261C41.6733 24.5911 41.6467 24.6544 41.6202 24.7178C41.5937 24.7811 41.5671 24.8444 41.5423 24.9095C41.4914 25.0369 41.4489 25.1672 41.4149 25.2998C41.3433 25.3704 41.2771 25.4459 41.2167 25.5257C41.1524 25.6018 41.0933 25.6819 41.0398 25.7654L40.9619 25.8681C40.9426 25.9086 40.9163 25.9457 40.884 25.9776C40.8463 26.019 40.8035 26.0558 40.7566 26.0872C40.709 26.1152 40.664 26.1473 40.6222 26.183C40.3644 26.3632 40.0895 26.5191 39.8011 26.6486C39.5151 26.7714 39.216 26.8633 38.9092 26.9225C38.7717 26.8823 38.6279 26.8661 38.4845 26.8746C38.3465 26.8798 38.209 26.8565 38.0811 26.8061C37.962 26.7732 37.8606 26.6972 37.7979 26.5939C37.7468 26.4895 37.6773 26.3945 37.5927 26.3131C37.5891 26.2813 37.5891 26.2491 37.5927 26.2173V26.1214C37.5878 25.931 37.6165 25.7411 37.6776 25.56C37.7417 25.4108 37.8174 25.2666 37.9041 25.1286C37.9561 25.0489 38.0135 24.9718 38.0713 24.8941C38.1078 24.8449 38.1445 24.7956 38.1802 24.7452C38.293 24.6036 38.388 24.4496 38.4633 24.2864C38.5523 24.2205 38.6352 24.1472 38.711 24.0673L38.9658 23.8277L39.2207 23.6086C39.3088 23.5333 39.4063 23.4689 39.5109 23.4169C39.5586 23.3563 39.6221 23.3091 39.6949 23.2799C39.7625 23.2421 39.8186 23.1878 39.8577 23.1224H40.0276C40.08 23.059 40.1421 23.0036 40.2116 22.9581C40.2866 22.9161 40.3647 22.8795 40.4452 22.8486L40.6859 22.7527C40.7621 22.7192 40.8316 22.6728 40.8911 22.6158C40.9186 22.6257 40.9436 22.6413 40.9643 22.6613C40.9851 22.6814 41.0012 22.7056 41.0115 22.7322L41.0752 22.8828L41.1601 22.9444C41.1947 22.9339 41.2317 22.9339 41.2663 22.9444L41.3654 22.9924C41.3823 23.0026 41.3963 23.0166 41.4062 23.0334C41.4161 23.0501 41.4215 23.069 41.422 23.0882C41.4664 23.0797 41.5121 23.0797 41.5565 23.0882C41.6255 23.0894 41.6932 23.1058 41.7547 23.1361C41.8127 23.1682 41.8745 23.1935 41.9387 23.2115C41.9422 23.2387 41.9422 23.2663 41.9387 23.2936C41.9377 23.3749 41.9105 23.4539 41.8608 23.5196C41.8714 23.553 41.8785 23.5874 41.8821 23.6223Z" fill="#EAE8E4"/>
<path d="M54.0638 25.8339C54.0682 25.8043 54.0682 25.7744 54.0638 25.7448H54.0001C53.9342 25.7378 53.8677 25.7378 53.8019 25.7448H53.6107C53.5537 25.7452 53.4976 25.731 53.448 25.7038C53.0949 25.8845 52.7309 26.0446 52.3579 26.183L51.2608 26.6144C51.2285 26.5985 51.2033 26.5717 51.19 26.5391C51.1843 26.5234 51.1738 26.5098 51.1599 26.5C51.146 26.4902 51.1293 26.4847 51.1121 26.4843C51.0764 26.5442 51.018 26.5884 50.9493 26.6076C50.8787 26.6142 50.8076 26.6142 50.737 26.6076C50.6576 26.6038 50.5791 26.5899 50.5034 26.5665C50.43 26.5536 50.3643 26.5145 50.3194 26.4569C50.2426 26.3096 50.1969 26.149 50.1849 25.9845V24.9369C50.2406 24.8662 50.2793 24.7843 50.2981 24.6973C50.3134 24.6204 50.3229 24.5426 50.3264 24.4645C50.333 24.3619 50.333 24.2589 50.3264 24.1563V23.8756C50.3808 23.8206 50.4176 23.7517 50.4326 23.6771C50.4395 23.6019 50.4395 23.5263 50.4326 23.4511V23.0129C50.4292 22.9582 50.4292 22.9033 50.4326 22.8486C50.4425 22.7943 50.4592 22.7415 50.4822 22.6911C50.3898 22.5223 50.3412 22.3343 50.3406 22.1433V22.0201C50.2766 21.989 50.2068 21.9703 50.1353 21.9653C50.0991 21.9572 50.066 21.9395 50.0397 21.9141C50.0134 21.8886 49.995 21.8566 49.9867 21.8215C49.9306 21.8324 49.8729 21.8324 49.8168 21.8215C49.777 21.828 49.7363 21.828 49.6965 21.8215L49.5761 21.7873V21.8831C49.407 21.9529 49.2514 22.0502 49.1161 22.1707C48.999 22.3064 48.9406 22.4806 48.9533 22.6569C48.9987 22.6947 49.0345 22.7422 49.0578 22.7957C49.0811 22.8491 49.0914 22.9071 49.0877 22.965C49.1341 22.9733 49.1754 22.9986 49.203 23.0356C49.2307 23.0725 49.2426 23.1183 49.2364 23.1635C49.2368 23.26 49.2099 23.3547 49.1585 23.4374C49.1917 23.5322 49.2084 23.6317 49.2081 23.7318V24.1358C49.1236 24.3563 49.0689 24.5865 49.0453 24.8205C49.0319 25.0499 49.006 25.2785 48.9674 25.5052V25.7311C48.9636 25.8018 48.9636 25.8727 48.9674 25.9434V26.2994L49.0099 26.5117C49.0064 26.5573 49.0064 26.6031 49.0099 26.6486C49.0364 26.7224 49.0746 26.7917 49.1231 26.854C49.1789 26.9101 49.2244 26.9749 49.2576 27.0458C49.3117 27.1735 49.3911 27.2898 49.4912 27.3881C49.5995 27.4755 49.7155 27.5534 49.838 27.6209C49.9125 27.6037 49.9901 27.6037 50.0645 27.6209C50.1349 27.6312 50.2065 27.6312 50.2769 27.6209H50.3406V27.5798H50.7511C50.9801 27.5818 51.2044 27.5174 51.3953 27.395H51.4377C51.4632 27.3883 51.4901 27.3883 51.5156 27.395C51.5428 27.4056 51.5733 27.4056 51.6005 27.395C51.7035 27.3412 51.791 27.2635 51.8553 27.169C51.9706 27.131 52.0819 27.0829 52.188 27.0252L52.5136 26.8472C52.6192 26.7871 52.7279 26.7322 52.8392 26.6829C52.9543 26.6287 53.0754 26.5873 53.2002 26.5596L53.2568 26.4638L53.3135 26.409C53.3388 26.4011 53.366 26.4011 53.3913 26.409H53.5187C53.5187 26.3617 53.5491 26.3177 53.5772 26.2769C53.5898 26.2587 53.602 26.2411 53.6107 26.2241C53.6315 26.1962 53.6593 26.1739 53.6916 26.1595C53.7238 26.1451 53.7594 26.1391 53.7948 26.142C53.7879 26.1104 53.7879 26.0777 53.7948 26.0461C53.7941 26.0196 53.801 25.9934 53.8147 25.9704C53.8285 25.9475 53.8485 25.9286 53.8726 25.916C53.9093 25.9209 53.9465 25.9158 53.9803 25.9013C54.0141 25.8868 54.043 25.8634 54.0638 25.8339Z" fill="#EAE8E4"/>
<path d="M48.7692 25.738C48.7057 25.7313 48.6416 25.7313 48.5781 25.738C48.5122 25.7447 48.4458 25.7447 48.3799 25.738C48.3229 25.7383 48.2667 25.7242 48.2171 25.6969C47.8671 25.8789 47.5054 26.039 47.1341 26.1762C46.7661 26.3131 46.398 26.4569 46.0299 26.6076C45.9994 26.5914 45.9766 26.5644 45.9662 26.5322C45.9598 26.517 45.949 26.5039 45.9353 26.4942C45.9216 26.4845 45.9053 26.4788 45.8884 26.4775C45.848 26.5361 45.788 26.5796 45.7185 26.6007C45.6479 26.6074 45.5768 26.6074 45.5061 26.6007C45.4268 26.5969 45.3482 26.5831 45.2726 26.5596C45.2083 26.5642 45.1442 26.5499 45.0885 26.5185C45.0118 26.3712 44.9661 26.2106 44.954 26.0461V24.9985C45.0121 24.9283 45.0533 24.8464 45.0744 24.7589C45.0978 24.6573 45.1143 24.5544 45.1239 24.4508V23.8619C45.1782 23.8069 45.2151 23.738 45.2301 23.6634C45.2405 23.5884 45.2405 23.5124 45.2301 23.4374V22.9992C45.2269 22.9445 45.2269 22.8896 45.2301 22.8349C45.2368 22.78 45.2536 22.7266 45.2796 22.6774C45.1819 22.5103 45.1307 22.3216 45.131 22.1296V22.0064C45.0673 21.9744 44.9974 21.9557 44.9257 21.9516C44.8904 21.9432 44.8584 21.9251 44.8333 21.8997C44.8082 21.8742 44.7912 21.8423 44.7842 21.8078C44.7257 21.8187 44.6657 21.8187 44.6072 21.8078C44.5698 21.8144 44.5314 21.8144 44.494 21.8078L44.3666 21.7736C44.3736 21.7887 44.3772 21.805 44.3772 21.8215C44.3772 21.8381 44.3736 21.8544 44.3666 21.8695C44.1995 21.9392 44.0462 22.0365 43.9135 22.157C43.7965 22.2927 43.7381 22.4669 43.7507 22.6432C43.7946 22.6823 43.8293 22.73 43.8525 22.7831C43.8757 22.8363 43.8869 22.8936 43.8852 22.9513C43.9303 22.9611 43.9698 22.987 43.9961 23.0238C44.0223 23.0606 44.0333 23.1056 44.0268 23.1498C44.0305 23.2467 44.0033 23.3423 43.9489 23.4237C43.9854 23.5177 44.0022 23.6178 43.9985 23.7181V23.9304C43.9919 23.9941 43.9919 24.0584 43.9985 24.1221C43.9074 24.3407 43.8525 24.5717 43.8357 24.8068C43.8357 25.0263 43.7979 25.2519 43.7639 25.4549L43.7578 25.4915L43.7153 25.7175V25.9297C43.7128 25.9753 43.7128 26.021 43.7153 26.0666L43.7578 26.2857C43.7539 26.3564 43.7539 26.4273 43.7578 26.498V26.6349C43.7869 26.7089 43.8275 26.7782 43.8782 26.8404C43.9317 26.8981 43.9769 26.9626 44.0126 27.0321C44.0667 27.1598 44.1461 27.2761 44.2462 27.3744C44.3532 27.4634 44.4695 27.5414 44.5931 27.6072C44.6651 27.5901 44.7404 27.5901 44.8125 27.6072C44.8829 27.6175 44.9544 27.6175 45.0248 27.6072H45.0956V27.5661C45.0981 27.565 45.1007 27.5642 45.1033 27.5636C45.1066 27.5628 45.1099 27.5624 45.1133 27.5624C45.1166 27.5624 45.1198 27.5628 45.123 27.5635C45.1257 27.5641 45.1284 27.565 45.131 27.5661H45.4991C45.7303 27.5682 45.9569 27.5039 46.1503 27.3813C46.1756 27.3734 46.2028 27.3734 46.2281 27.3813C46.2555 27.3913 46.2857 27.3913 46.3131 27.3813H46.3485C46.4488 27.3266 46.5339 27.249 46.5962 27.1553C46.7137 27.1174 46.8274 27.0692 46.936 27.0115L47.2545 26.8335C47.3624 26.7733 47.4735 26.7185 47.5872 26.6692C47.6998 26.615 47.8186 26.5737 47.9411 26.5459C47.9635 26.516 47.9824 26.4839 47.9977 26.4501L48.0614 26.3953C48.0843 26.3875 48.1093 26.3875 48.1322 26.3953H48.2596C48.2687 26.3777 48.2773 26.3606 48.2857 26.3439C48.31 26.2957 48.3324 26.2511 48.3587 26.2104C48.3783 26.1814 48.406 26.1583 48.4385 26.1438C48.4711 26.1293 48.5072 26.1239 48.5427 26.1283C48.5193 26.1009 48.5046 26.0676 48.5002 26.0324C48.4996 26.0059 48.5065 25.9797 48.5202 25.9567C48.5339 25.9338 48.554 25.9149 48.5781 25.9023C48.5997 25.9155 48.6238 25.9243 48.649 25.928C48.6743 25.9317 48.7 25.9302 48.7246 25.9238C48.7492 25.9174 48.7722 25.906 48.7921 25.8906C48.812 25.8751 48.8283 25.8558 48.84 25.8339C48.8419 25.8042 48.8419 25.7745 48.84 25.7448L48.7692 25.738Z" fill="#EAE8E4"/>
</svg>
